<svg xmlns="http://www.w3.org/2000/svg" viewBox="-420 666.571 60 55.429">
  <g id="calendar" transform="translate(-420 613.905)">
    <g id="Group_2" data-name="Group 2" transform="translate(0 52.666)">
      <g id="Group_1" data-name="Group 1" transform="translate(0 0)">
        <path fill='#F7DA99' id="Path_3" data-name="Path 3" d="M56.3,52.722H54.364c-3.013-.05-2.884-.1-5.515,0H7.028c.162.047-.243.056-3.331,0-2.039,0-3.7,2.042-3.7,4.553v46.268c0,2.51,1.658,4.552,3.7,4.552H56.3c2.039,0,3.7-2.042,3.7-4.552V57.274C60,54.764,58.342,52.722,56.3,52.722Zm0,53.208H3.7a2.2,2.2,0,0,1-1.939-2.388V57.274A2.2,2.2,0,0,1,3.7,54.886H5.636c3.062.111,2.217-.007,5.515.075l37.7-.075s2.742.008,2.654,0,2.862.091,2.861.075l1.939-.075a2.2,2.2,0,0,1,1.939,2.388v46.268h0A2.2,2.2,0,0,1,56.3,105.93Z" transform="translate(0 -52.666)"/>
      </g>
    </g>
    <g id="Group_4" data-name="Group 4" transform="translate(3.758 59.662)">
      <g id="Group_3" data-name="Group 3" transform="translate(0 0)">
        <path  fill='#F7DA99' id="Path_4" data-name="Path 4" d="M83.67,128.258H32.943a1.106,1.106,0,0,0,0,2.164H83.67a1.106,1.106,0,0,0,0-2.164Z" transform="translate(-32.064 -128.258)"/>
      </g>
    </g>
    <g id="Group_6" data-name="Group 6" transform="translate(6.576 68.916)">
      <g id="Group_5" data-name="Group 5" transform="translate(0 0)">
        <path  fill='#F7DA99' id="Path_5" data-name="Path 5" d="M62.628,192.386H56.992a1.106,1.106,0,0,0,0,2.164h5.636a1.106,1.106,0,0,0,0-2.164Z" transform="translate(-56.113 -192.386)"/>
      </g>
    </g>
    <g id="Group_8" data-name="Group 8" transform="translate(19.727 68.916)">
      <g id="Group_7" data-name="Group 7" transform="translate(0 0)">
        <path  fill='#F7DA99' id="Path_6" data-name="Path 6" d="M174.854,192.386h-5.636a1.106,1.106,0,0,0,0,2.164h5.636a1.106,1.106,0,0,0,0-2.164Z" transform="translate(-168.339 -192.386)"/>
      </g>
    </g>
    <g id="Group_10" data-name="Group 10" transform="translate(46.03 68.916)">
      <g id="Group_9" data-name="Group 9" transform="translate(0 0)">
        <path  fill='#F7DA99' id="Path_7" data-name="Path 7" d="M399.305,192.386h-5.636a1.106,1.106,0,0,0,0,2.164h5.636a1.106,1.106,0,0,0,0-2.164Z" transform="translate(-392.79 -192.386)"/>
      </g>
    </g>
    <g id="Group_12" data-name="Group 12" transform="translate(6.576 78.17)">
      <g id="Group_11" data-name="Group 11">
        <path  fill='#F7DA99' id="Path_8" data-name="Path 8" d="M62.628,256.516H56.992a1.106,1.106,0,0,0,0,2.164h5.636a1.106,1.106,0,0,0,0-2.164Z" transform="translate(-56.113 -256.516)"/>
      </g>
    </g>
    <g id="Group_14" data-name="Group 14" transform="translate(32.879 78.17)">
      <g id="Group_13" data-name="Group 13">
        <path  fill='#F7DA99' id="Path_9" data-name="Path 9" d="M287.079,256.516h-5.636a1.106,1.106,0,0,0,0,2.164h5.636a1.106,1.106,0,0,0,0-2.164Z" transform="translate(-280.564 -256.516)"/>
      </g>
    </g>
    <g id="Group_16" data-name="Group 16" transform="translate(6.576 87.423)">
      <g id="Group_15" data-name="Group 15" transform="translate(0 0)">
        <path  fill='#F7DA99' id="Path_10" data-name="Path 10" d="M62.628,320.646H56.992a1.106,1.106,0,0,0,0,2.164h5.636a1.106,1.106,0,0,0,0-2.164Z" transform="translate(-56.113 -320.646)"/>
      </g>
    </g>
    <g id="Group_18" data-name="Group 18" transform="translate(19.727 87.423)">
      <g id="Group_17" data-name="Group 17" transform="translate(0 0)">
        <path  fill='#F7DA99' id="Path_11" data-name="Path 11" d="M174.854,320.646h-5.636a1.106,1.106,0,0,0,0,2.164h5.636a1.106,1.106,0,0,0,0-2.164Z" transform="translate(-168.339 -320.646)"/>
      </g>
    </g>
    <g id="Group_20" data-name="Group 20" transform="translate(46.03 87.423)">
      <g id="Group_19" data-name="Group 19" transform="translate(0 0)">
        <path  fill='#F7DA99' id="Path_12" data-name="Path 12" d="M399.305,320.646h-5.636a1.106,1.106,0,0,0,0,2.164h5.636a1.106,1.106,0,0,0,0-2.164Z" transform="translate(-392.79 -320.646)"/>
      </g>
    </g>
    <g id="Group_22" data-name="Group 22" transform="translate(19.727 96.677)">
      <g id="Group_21" data-name="Group 21">
        <path  fill='#F7DA99' id="Path_13" data-name="Path 13" d="M174.854,384.773h-5.636a1.106,1.106,0,0,0,0,2.164h5.636a1.106,1.106,0,0,0,0-2.164Z" transform="translate(-168.339 -384.773)"/>
      </g>
    </g>
    <g id="Group_24" data-name="Group 24" transform="translate(32.879 96.677)">
      <g id="Group_23" data-name="Group 23">
        <path  fill='#F7DA99' id="Path_14" data-name="Path 14" d="M287.079,384.773h-5.636a1.106,1.106,0,0,0,0,2.164h5.636a1.106,1.106,0,0,0,0-2.164Z" transform="translate(-280.564 -384.773)"/>
      </g>
    </g>
    <g id="Group_26" data-name="Group 26" transform="translate(46.03 96.677)">
      <g id="Group_25" data-name="Group 25">
        <path  fill='#F7DA99' id="Path_15" data-name="Path 15" d="M399.305,384.773h-5.636a1.106,1.106,0,0,0,0,2.164h5.636a1.106,1.106,0,0,0,0-2.164Z" transform="translate(-392.79 -384.773)"/>
      </g>
    </g>
    <g id="Group_28" data-name="Group 28" transform="translate(19.727 75.856)">
      <g id="Group_27" data-name="Group 27" transform="translate(0 0)">
        <path  fill='#F7DA99' id="Path_16" data-name="Path 16" d="M175.476,240.8a.768.768,0,0,0-1.243,0l-3.136,3.862-1.257-1.548a.768.768,0,0,0-1.243,0,1.266,1.266,0,0,0,0,1.531l1.879,2.313a.768.768,0,0,0,1.243,0l3.758-4.627A1.266,1.266,0,0,0,175.476,240.8Z" transform="translate(-168.339 -240.484)"/>
      </g>
    </g>
    <g id="Group_30" data-name="Group 30" transform="translate(46.03 75.856)">
      <g id="Group_29" data-name="Group 29" transform="translate(0 0)">
        <path  fill='#F7DA99' id="Path_17" data-name="Path 17" d="M399.928,240.8a.768.768,0,0,0-1.243,0l-3.136,3.862-1.257-1.548a.768.768,0,0,0-1.243,0,1.266,1.266,0,0,0,0,1.531l1.879,2.313a.768.768,0,0,0,1.243,0l3.758-4.627A1.266,1.266,0,0,0,399.928,240.8Z" transform="translate(-392.791 -240.484)"/>
      </g>
    </g>
    <g id="Group_32" data-name="Group 32" transform="translate(32.879 85.11)">
      <g id="Group_31" data-name="Group 31">
        <path  fill='#F7DA99' id="Path_18" data-name="Path 18" d="M287.7,304.93a.768.768,0,0,0-1.243,0l-3.136,3.862-1.257-1.548a.768.768,0,0,0-1.243,0,1.266,1.266,0,0,0,0,1.531l1.879,2.313a.768.768,0,0,0,1.243,0l3.758-4.627A1.266,1.266,0,0,0,287.7,304.93Z" transform="translate(-280.565 -304.613)"/>
      </g>
    </g>
    <g id="Group_34" data-name="Group 34" transform="translate(6.576 94.364)">
      <g id="Group_33" data-name="Group 33" transform="translate(0 0)">
        <path  fill='#F7DA99' id="Path_19" data-name="Path 19" d="M63.25,369.06a.768.768,0,0,0-1.243,0l-3.136,3.862-1.257-1.548a.768.768,0,0,0-1.243,0,1.266,1.266,0,0,0,0,1.531l1.879,2.313a.768.768,0,0,0,1.243,0l3.757-4.627A1.266,1.266,0,0,0,63.25,369.06Z" transform="translate(-56.113 -368.743)"/>
      </g>
    </g>
    <g id="Group_36" data-name="Group 36" transform="translate(32.879 66.603)">
      <g id="Group_35" data-name="Group 35">
        <path  fill='#F7DA99' id="Path_20" data-name="Path 20" d="M287.7,176.672a.768.768,0,0,0-1.243,0l-3.136,3.862-1.257-1.548a.768.768,0,0,0-1.243,0,1.266,1.266,0,0,0,0,1.531l1.879,2.313a.768.768,0,0,0,1.243,0L287.7,178.2A1.266,1.266,0,0,0,287.7,176.672Z" transform="translate(-280.565 -176.355)"/>
      </g>
    </g>
  </g>
</svg>
