<?xml version="1.0" encoding="iso-8859-1"?>
<!-- Generator: Adobe Illustrator 18.0.0, SVG Export Plug-In . SVG Version: 6.00 Build 0)  -->
<!DOCTYPE svg PUBLIC "-//W3C//DTD SVG 1.1//EN" "http://www.w3.org/Graphics/SVG/1.1/DTD/svg11.dtd">
<svg xmlns="http://www.w3.org/2000/svg" xmlns:xlink="http://www.w3.org/1999/xlink" version="1.1" id="Capa_1" x="0px" y="0px" viewBox="0 0 493.258 493.258" style="enable-background:new 0 0 493.258 493.258;" xml:space="preserve" width="512px" height="512px">
<g id="XMLID_621_">
	<path id="XMLID_623_" d="M131.564,219.258h230.13c9.314,0,17.857-5.16,22.203-13.389c4.34-8.246,3.769-18.193-1.494-25.895   L265.92,9.772C261.75,3.68,254.846,0.033,247.461,0c-7.377-0.018-14.303,3.584-18.507,9.658L110.935,179.863   c-5.319,7.668-5.938,17.664-1.607,25.941C113.659,214.067,122.225,219.258,131.564,219.258z" fill="#D25737"/>
	<path id="XMLID_622_" d="M361.694,273.998h-230.13c-9.339,0-17.905,5.193-22.236,13.455c-4.331,8.277-3.711,18.273,1.607,25.939   l118.019,170.205c4.204,6.074,11.13,9.676,18.507,9.66c7.385-0.031,14.289-3.682,18.459-9.772l116.483-170.205   c5.263-7.699,5.834-17.648,1.494-25.895C379.551,279.158,371.008,273.998,361.694,273.998z" fill="#D25737"/>
</g>
<g>
</g>
<g>
</g>
<g>
</g>
<g>
</g>
<g>
</g>
<g>
</g>
<g>
</g>
<g>
</g>
<g>
</g>
<g>
</g>
<g>
</g>
<g>
</g>
<g>
</g>
<g>
</g>
<g>
</g>
</svg>
