<?xml version="1.0" encoding="utf-8"?>
<!-- Generator: Adobe Illustrator 16.0.0, SVG Export Plug-In . SVG Version: 6.00 Build 0)  -->
<!DOCTYPE svg PUBLIC "-//W3C//DTD SVG 1.0//EN" "http://www.w3.org/TR/2001/REC-SVG-20010904/DTD/svg10.dtd">
<svg version="1.0" id="Layer_1" xmlns="http://www.w3.org/2000/svg" xmlns:xlink="http://www.w3.org/1999/xlink" x="0px" y="0px"
	 width="794px" height="926px" viewBox="0 0 794 926" enable-background="new 0 0 794 926" xml:space="preserve">
<g>
	<path fill="none" stroke="#000000" stroke-width="2" stroke-linecap="round" stroke-linejoin="round" stroke-miterlimit="10" d="
		M679.957,301.902c-2.39,13.188-3.357,26.684-7.569,39.478c-5.284,16.054-4.977,32.571-4.27,49.016
		c0.595,13.863,3.7,27.455,6.686,41.04c2.123,9.66,2.688,19.654,4.197,29.46c1.109,7.201,3.069,14.297,3.769,21.525
		c0.354,3.658,1.333,7.279,1.176,10.981c-0.554,13.064,1.961,25.949,2.229,38.995c0.187,9.144,1.334,18.317,1.92,27.496
		c0.681,10.667,1.067,21.375,2.031,31.993c2.691,29.654,2.603,59.389,1.383,88.997c-0.668,16.206,2.201,30.905,7.973,45.509
		c5.25,13.282,9.053,26.979,11.399,41.022c2.291,13.713,2.776,27.631,1.964,41.48c-0.802,13.673-0.79,27.334-0.921,41.007
		c-0.026,2.727,0.48,5.103,2.62,7.08c2.688-0.659,4.998-2.207,7.491-3.423c2.873-1.4,6.061-2.759,9.111,1.198
		c2.004,2.601,5.793,3.842,8.816,5.637c3.524,2.092,5.815,9.719,3.985,13.503c-0.26,0.536-0.973,1.024-0.943,1.502
		c0.471,7.599-4.657,10.478-10.527,13.048c-8.377,3.67-15.129,9.64-20.943,16.52c-4.09,4.84-9.45,7.102-15.096,8.872
		c-7.429,2.328-14.644-4.178-15.513-13.434c-0.487-5.184-1.3-10.336-1.969-15.503c-0.138-1.064-0.727-2.429-1.126-2.891
		c-6.299-7.298-5.12-15.522-4.012-24.127c1.292-10.033-0.031-20.107-3.959-29.441c-6.008-14.278-10.473-29.004-13.787-44.066
		c-1.361-6.181-1.128-12.695-2.188-18.963c-1.793-10.611,0.298-21.518-2.861-32.031c-1.867-6.214-4.888-11.92-7.218-17.922
		c-6.889-17.75-11.854-35.989-15.883-54.551c-4.806-22.139-7.671-44.692-14.008-66.496c-3.604-12.399-7.612-24.683-11.489-37.002
		c-0.238-0.757-0.926-1.373-1.208-1.775c-5.594,1.241-10.928,1.22-16.611-0.328c-5.59,16.479-10.804,33.044-14.878,50.039
		c-2.435,10.156-4.7,20.37-6.548,30.595c-2.175,12.044-4.452,24.048-7.237,35.957c-4.408,18.85-10.26,37.244-18.041,54.979
		c-2.197,5.009-3.624,10.017-4.029,15.519c-1.082,14.685-1.005,29.539-4.052,43.978c-2.885,13.669-7.368,26.942-12.299,40.053
		c-3.135,8.334-6.442,16.81-5.467,25.965c0.48,4.504,0.665,9.049,1.75,13.547c0.938,3.885-0.042,8.151-2.434,11.401
		c-4.247,5.77-4.584,12.435-5.425,19.062c-0.502,3.956-1.062,7.882-2.963,11.516c-2.243,4.285-9.209,7.521-13.521,5.97
		c-6.274-2.257-12.118-5.161-16.531-10.464c-5.858-7.038-13.084-12.284-21.454-16.065c-5.037-2.274-7.302-6.314-8.906-11.843
		c-1.229-4.23-0.436-7.541,0.479-11.088c1.14-4.422,6.142-5.088,8.953-7.979c0.323-0.333,1.721,0.208,1.89-0.082
		c4.083-7.008,8.802-3.726,13.583-0.998c1.216,0.694,2.288,1.993,4.178,1.058c2.141-0.896,2.365-3.033,2.348-5.522
		c-0.094-13.833-0.128-27.668,0.014-41.499c0.035-3.414-1.205-6.559-1.141-10.003c0.497-26.409,5.244-51.966,15.122-76.482
		c4.671-11.594,7.399-23.356,7.09-36.019c-0.461-18.828-1.895-37.646-1.119-56.497c0.611-14.835,1.03-29.688,2.092-44.492
		c0.706-9.833,1.431-19.658,2.037-29.499c0.626-10.167,1.32-20.337,2.034-30.496c0.668-9.501,1.273-19.011,2.025-28.497
		c0.677-8.529,2.052-17.066,3.514-25.565c1.302-7.57,2.447-15.261,3.421-22.934c1.489-11.731,3.457-23.44,6.023-34.981
		c1.48-6.657,2.327-13.367,2.68-20.044c0.595-11.302,0.452-22.668,0.066-33.988c-0.279-8.202-2.852-16.09-4.936-23.994
		c-2.649-10.048-4.65-20.207-6.002-30.504c-0.07-0.535-0.633-1.005-0.966-1.505"/>
	
		<path fill-rule="evenodd" clip-rule="evenodd" fill="none" stroke="#000000" stroke-width="2" stroke-linecap="round" stroke-linejoin="round" stroke-miterlimit="10" d="
		M680.957,304.402c6.244,12.626,10.718,25.982,15.914,39.034c3.547,8.906,6.859,17.964,8.568,27.469
		c1.256,6.984,2.742,13.96,3.416,21.007c0.792,8.284,2.618,16.384,4.287,24.452c2.732,13.213,5.117,26.518,8.742,39.558
		c3.821,13.744,7.158,27.626,10.531,41.49c1.394,5.729,2.348,11.562,2.548,17.49c0.175,5.168,1.378,10.146,0.249,15.554
		c-1.092,5.23-2.456,10.238-4.813,14.917c-3.751,7.443-5.93,15.16-5.437,23.529c0.595,10.087-0.605,20.043-1.964,30.006
		c-0.523,3.84,0.108,7.268,4.955,8.014c3.224,0.496,6.614-1.822,7.965-6.031c1.505-4.688,2.351-9.542,1.998-14.485
		c-0.203-2.855,0.501-5.469,1.597-7.979c0.5-1.146,0.448-3.092,2.442-2.996c1.786,0.085,2.496,1.286,3.049,2.956
		c2.779,8.396,3.906,22.1-5,29.076c-3.132,2.453-5.825,5.505-8.516,8.469c-2.568,2.828-2.182,3.934,1.47,5.466
		c0.484,0.203,0.998,0.338,1.498,0.505c-1.031,2.255-0.126,3.783,2.015,4.453c1.889,0.59,3.475-1.975,4.444-1.765
		c8.566,1.852,12.218-5.395,17.451-9.309c5.404-4.042,7.251-10.392,8.663-16.864c1.461-6.697,2.772-13.48,6.321-19.577
		c0.726-1.244,0.609-3.478,0.025-4.906c-4.735-11.606-6.731-23.906-9.397-36.037c-0.175-0.795-0.063-1.664-0.017-2.495
		c0.969-17.064-1.748-33.978-2.177-50.996c-0.269-10.657-1.147-21.354-2.032-31.987c-0.888-10.667-1.511-21.373-2.566-32.039
		c-0.837-8.464-1.441-17.01-2.383-25.461c-1.622-14.556-4.877-28.848-10.365-42.51c-6.218-15.477-9.631-31.63-12.63-47.979
		c-2.198-11.979-4.024-24.016-5.689-36.05c-1.714-12.397-3.508-24.729-6.053-37c-4.312-20.785-16.197-33.375-37.086-38.087
		c-19.078-4.303-35.79-13.721-51.063-25.841c-4.019-3.188-5.469-7.617-5.809-12.062c-0.793-10.36,0.681-20.686,1.785-30.995
		c0.137-1.275,0.947-1.736,1.567-2.489c4.788-5.812,6.475-12.819,7.399-20.017c0.258-2.003,0.96-2.997,2.562-4.039
		c4.203-2.733,7.221-12.649,5.534-17.448c-0.175-0.497-0.193-1.303-0.521-1.455c-7.427-3.46-4.75-10.56-5.262-16.065
		c-0.728-7.821-0.817-15.668-2.11-23.497c-2.588-15.675-12.286-25.175-26.149-30.881C600.46,4.2,589.713,5.454,578.936,8.32
		c-14.578,3.877-23.83,13.007-28.424,27.1c-0.883,2.709-1.339,5.633-1.501,8.485c-0.482,8.491-0.733,16.997-1.047,25.497
		c-0.121,3.279-0.176,6.469-3.482,8.539c-2.52,1.578-3.033,4.312-2.463,6.947c1.076,4.969,1.346,10.503,6.463,13.472
		c3.003,1.742,1.464,4.825,2.198,7.13c1.702,5.342,2.459,10.903,6.23,15.451c1.713,2.065,2.07,4.685,2.116,7.46
		c0.137,8.337,0.938,16.643,1.085,24.998c0.137,7.724-2.885,12.86-9.112,17.065c-16.196,10.939-33.163,19.725-52.501,24.117
		c-19.412,4.409-28.479,19.035-32.498,37.33c-2.896,13.184-4.431,26.587-6.232,39.965c-2.691,19.977-5.89,39.921-10.794,59.529
		c-2.658,10.627-7.398,20.533-10.517,30.996c-2.979,9.993-5.367,20.095-6.551,30.494c-1.231,10.817-2.401,21.617-3.099,32.496
		c-0.576,9-1.387,17.99-1.983,27.001c-0.75,11.332-1.373,22.665-2.026,34c-0.604,10.499-2.154,20.972-1.782,31.507
		c0.551,15.596-2.352,30.625-6.547,45.505c-1.075,3.812-1.625,7.826-3.146,11.44c-1.032,2.454,0.304,4.57,0.886,5.951
		c2.812,6.667,4.25,13.638,5.711,20.613c1.64,7.836,6.806,12.921,12.41,18.129c4.751,4.415,10.628,4.922,16.143,6.822
		c1.033,0.355,3.049,0.072,2.85-0.932c-0.824-4.153,5.73-3.542,4.577-7.511c-0.274-0.946-1.223-1.732-1.95-2.508
		c-3.146-3.354-6.497-6.53-9.451-10.043c-4.497-5.346-7.029-11.232-4.644-18.5c0.707-2.155,0.25-4.636,0.968-7.007
		c0.605-2.003,0.632-4.344,3.137-4.358c2.896-0.018,3.925,2.839,3.85,4.894c-0.168,4.591,1.228,8.977,1.145,13.506
		c-0.055,3.009,0.828,5.832,2.053,8.478c1.737,3.752,5.21,5.255,8.452,4.022c3.66-1.392,4.908-4.69,4.052-9.01
		c-1.601-8.071-3.98-16.337-2.338-24.447c1.829-9.024-0.989-16.661-4.177-24.558c-1.912-4.737-4.036-9.366-5.142-14.463
		c-1.563-7.214-1.26-14.385-0.333-21.515c3.284-25.252,12.044-49.24,17.378-74.021c3.321-15.431,6.459-30.925,8.91-46.511
		c1.469-9.341,2.186-18.841,4.727-27.955c4.882-17.516,12.399-34.093,18.939-51.015c1.048-2.713,2.316-5.34,3.483-8.007"/>
	
		<path fill-rule="evenodd" clip-rule="evenodd" fill="none" stroke="#000000" stroke-width="2" stroke-linecap="round" stroke-linejoin="round" stroke-miterlimit="10" d="
		M270.957,300.902c8.271,18.638,15.7,37.633,21.769,57.072c2.11,6.761,2.509,14.211,3.366,21.412
		c1.118,9.398,2.968,18.73,4.921,28.004c2.782,13.213,5.815,26.376,8.979,39.503c3.343,13.871,6.897,27.693,10.516,41.495
		c0.826,3.151,0.778,6.385,1.247,9.544c1.889,12.729,0.331,24.905-6.119,36.568c-4.339,7.847-4.401,17.063-3.553,25.89
		c0.575,5.986-0.933,11.67-1.167,17.51c-0.015,0.347-0.824,0.616-0.928,1.01c-0.966,3.645,1.523,9.41,4.469,10.492
		c2.49,0.915,7.262-2.512,8.448-6.516c1.537-5.188,2.251-10.537,2.065-15.984c-0.121-3.537,0.79-6.568,4.595-8.041
		c3.788,4.167,2.964,9.574,3.956,14.528c1.614,8.058-1.658,12.817-8.303,17.393c-3.114,2.143-4.474,8.148-2.905,13.127
		c2.089,1.058,3.881,0.477,5.645-0.505c5.998-3.338,12.169-6.402,17.943-10.09c4.328-2.765,6.455-7.223,7.097-12.407
		c0.457-3.692,0.301-7.969,2.152-10.882c4.752-7.475,2.899-15.019,0.609-22.059c-4.268-13.114-5.909-26.319-6.012-40.062
		c-0.085-11.315-1.359-22.65-1.937-33.994c-0.525-10.333-1.198-20.688-2.053-30.991c-0.899-10.835-1.379-21.71-2.541-32.545
		c-0.889-8.279-1.312-16.692-2.401-24.953c-1.751-13.286-4.303-26.491-9.379-39.011c-6.208-15.308-9.8-31.247-12.609-47.485
		c-2.159-12.483-4.216-24.979-5.783-37.533c-1.555-12.462-3.384-24.84-6.593-36.988c-4.427-16.761-15.435-27.239-32.038-30.801
		c-13.112-2.812-24.484-8.915-35.976-15.165c-4.372-2.378-8.441-5.146-12.57-7.902c-6.476-4.324-7.545-10.18-6.965-17.138
		c0.304-3.641-0.186-7.348,0.108-10.99c0.459-5.684,1.405-11.328,1.847-17.013c0.098-1.251,0.57-2.263,1.158-2.94
		c5.389-6.204,6.973-13.76,7.91-21.556c0.139-1.155,0.243-1.851,1.488-2.569c6.416-3.704,6.647-9.994,6.615-16.427
		c-0.007-1.4-0.363-3.095-1.117-3.385c-6.381-2.452-4.658-8.293-4.732-12.619c-0.136-7.861-0.523-15.715-1.343-23.483
		c-1.822-17.27-14.161-30.099-29.872-35.04c-12.959-4.076-25.827-2.255-37.347,3.359c-11.304,5.509-19.031,15.282-20.686,28.665
		c-1.212,9.803-1.873,19.623-2.069,29.501c-0.065,3.315,0.438,7.183-3.864,9.1c-1.709,0.762-2.302,2.848-2.05,4.903
		c0.726,5.899,0.804,11.977,6.967,15.567c2.508,1.462,1.229,4.713,1.763,6.997c1.333,5.702,2.784,11.229,6.332,15.893
		c2.924,3.845,2.45,8.511,2.647,12.557c0.342,6.998,1.431,13.944,1.398,20.985c-0.032,7.176-2.848,12.483-8.597,16.506
		c-15.143,10.597-31.681,18.342-49.529,22.896c-19.793,5.05-28.376,19.066-31.976,37.599c-2.186,11.257-3.655,22.608-5.159,33.979
		c-2.527,19.116-5.359,38.253-10.005,56.98c-2.579,10.396-6.973,20.33-10.295,30.554c-3.173,9.763-5.482,19.724-6.599,29.98
		c-1.16,10.656-2.396,21.284-3.08,31.998c-0.564,8.833-1.442,17.649-1.979,26.502c-0.717,11.832-1.393,23.663-2.056,35.497
		c-0.552,9.831-2.136,19.638-1.763,29.508c0.5,13.214-1.943,25.926-5.571,38.5c-1.155,4.003-1.943,8.093-3.32,12.062
		c-0.625,1.805-0.333,4.19,0.685,6.503c2.709,6.156,4.142,12.765,5.148,19.437c0.633,4.199,2.449,7.422,6.455,9.574
		c5.985,3.218,11.646,7.034,17.58,10.354c1.542,0.862,3.467,1.988,5.463,0.578c2.341-1.655,0.869-3.471,0.638-5.521
		c-0.654-5.784-3.121-9.865-8.636-11.999c-2.267-0.877-2.62-2.741-2.544-4.986c0.198-5.844-0.523-11.754,1.082-17.486
		c0.555-1.979,0.686-5.05,3.444-4.854c2.648,0.188,3.027,2.994,3.55,5.332c1.29,5.775,0.448,11.758,1.916,17.521
		c0.679,2.667,1.861,4.941,4.071,6.452c3.814,2.607,8.633,0.224,8.922-4.467c0.206-3.344,0.031-6.659-0.864-10.02
		c-2.053-7.701-1.064-15.645-0.998-23.477c0.055-6.405-1.267-12.469-4.179-17.951c-5.85-11.016-6.421-22.323-5.173-34.577
		c1.628-15.99,6.895-30.995,10.494-46.42c3.419-14.653,6.932-29.272,9.793-44.049c1.553-8.021,3.709-15.947,4.854-24.021
		c0.925-6.52,1.991-13.004,2.98-19.505c1.712-11.257,6.141-21.524,10.161-31.972c3.924-10.195,8.048-20.315,11.9-30.537
		c0.471-1.248,0.984-1.98,2.494-2.712c1.216,6.854,2.698,13.513,3.516,20.252c1.094,9.013,3.895,17.625,5.588,26.488
		c1.139,5.962,2.647,11.824,2.541,18.004c-0.202,11.701,0.407,23.429-2.042,35.002c-1.901,8.985-3.765,17.981-5.481,27.003
		c-1.009,5.3-1.804,10.647-2.51,15.997c-1.408,10.657-2.943,21.308-3.895,32.009c-0.37,4.156-0.844,8.325-1.072,12.491
		c-0.724,13.191-2.628,26.272-3.219,39.489c-0.373,8.326-1.571,16.629-1.914,25.005c-0.545,13.345-1.509,26.676-2.551,39.993
		c-0.102,1.297-0.282,2.681-0.343,4.011c-0.41,8.997,0.724,18.032-0.978,27.009c-0.918,4.844,0.907,9.642,0.933,14.49
		c0.052,9.666-0.561,19.376,0.155,28.989c0.987,13.266-2.478,25.52-7.245,37.469c-4.139,10.374-6.566,20.959-8.071,32.018
		c-1.996,14.672-2.393,29.37-1.582,44.011c0.527,9.52,0.434,19.014,0.767,28.514c0.234,6.673-0.558,13.134-4.026,18.989
		c-2.527,4.267-2.323,8.955-1.886,13.502c0.569,5.913-1.368,10.845-5.153,14.956c-6.236,6.776-10.476,14.693-13.85,23.09
		c-1.288,3.204-4.016,5.131-5.572,7.974c-1.886,3.443-4.577,5.941-1.857,11.164c3.609,6.931,3.147,6.491,11.149,11.148
		c5.904,3.436,12.894,1.7,18.308,6.027c2.053,1.64,10.093-1.612,10.715-4.388c1.85-8.261,7.897-14.573,10.017-22.503
		c1.729-6.472,1.596-13.438,3.298-19.921c1.84-7.007,5.196-13.604,7.256-20.567c2.156-7.292,3.043-14.64,1.854-22.511
		c-1.2-7.949,0.208-15.985,2.537-24.02c5.466-18.858,13.719-36.772,18.31-55.916c1.473-6.143,2.89-12.167,2.937-18.525
		c0.086-11.748,3.336-22.821,7.981-33.489c7.625-17.507,11.878-35.995,15.917-54.523c2.965-13.602,5.294-27.341,8.083-40.982
		c3.686-18.031,8.819-35.661,14.914-53.026c0.865-2.466,2.283-2.98,4.561-3.016c4.001-0.062,8.034,0.509,12.361-0.54
		c3.504,7.363,5.62,15.314,8.065,23.101c5.043,16.061,9.084,32.445,11.896,49.007c3.026,17.829,6.578,35.508,11.239,52.953
		c3.418,12.792,7.619,25.412,13.154,37.417c2.454,5.323,3.498,10.816,3.546,16.102c0.153,17.024,5.244,32.737,10.675,48.52
		c4.492,13.056,9.919,25.8,12.787,39.432c0.619,2.941,0.573,5.721,0.707,8.55c0.243,5.155,0.46,10.366-0.013,15.489
		c-0.95,10.3,2.905,19.371,6.615,28.494c3.077,7.57,3.851,15.632,5.436,23.52c0.692,3.444,1.182,6.87,2.993,10.017
		c2.755,4.786,5.142,9.743,7.138,14.939c2.253,5.86,7.312,7.27,13.435,5.136c3.32-1.157,6.922-1.693,10.411-2.375
		c6.136-1.199,12.056-3.941,16.524-8.751c1.667-1.794,1.309-11.406-0.492-13.955c-8.396-11.885-13.181-25.997-22.951-37.04
		c-2.653-3-3.513-6.211-2.236-10.538c1.237-4.192,0.46-8.988-1.869-12.892c-3-5.028-4.137-10.228-4.047-16.049
		c0.063-4.137-1.396-8.286-0.854-12.495c2.121-16.47,0.996-33.014,0.819-49.501c-0.173-16.131-2.688-32.092-9.396-46.976
		c-7.007-15.547-8.849-31.89-7.288-48.512c1.504-16.028,0.806-32.027,0.588-48.011c-0.093-6.791-0.269-13.686-0.805-20.499
		c-0.892-11.324-1.428-22.663-2.099-33.995c-0.593-9.999-1.156-20.026-2.023-29.994c-1.146-13.175-1.852-26.396-3.602-39.544
		c-0.966-7.256-1.413-14.669-2.344-21.955c-1.047-8.193-2.463-16.381-3.639-24.55c-1.668-11.585-4.037-23.002-6.25-34.463
		c-2.106-10.908-3.125-21.884-3.032-33.004c0.079-9.383,2.075-18.474,4.189-27.468c2.414-10.277,4.424-20.578,6.122-30.989
		c0.45-2.76-0.472-6.073,1.739-8.543"/>
</g>
</svg>
