<?xml version="1.0" encoding="iso-8859-1"?>
<!-- Generator: Adobe Illustrator 19.0.0, SVG Export Plug-In . SVG Version: 6.00 Build 0)  -->
<svg version="1.1" id="Layer_1" xmlns="http://www.w3.org/2000/svg" xmlns:xlink="http://www.w3.org/1999/xlink" x="0px" y="0px"
	 viewBox="0 0 512 512" style="enable-background:new 0 0 512 512;" xml:space="preserve">
<g>
	<g>
		<path fill='#f7da99' d="M256,0c-11.422,0-20.682,9.26-20.682,20.682v94.127c0,11.422,9.26,20.682,20.682,20.682
			c11.423,0,20.682-9.26,20.682-20.682V20.682C276.682,9.26,267.423,0,256,0z"/>
	</g>
</g>
<g>
	<g>
		<path fill='#f7da99' d="M256,376.508c-11.422,0-20.682,9.259-20.682,20.682v94.127c0,11.423,9.26,20.682,20.682,20.682
			c11.423,0,20.682-9.259,20.682-20.682v-94.127C276.682,385.768,267.423,376.508,256,376.508z"/>
	</g>
</g>
<g>
	<g>
		<path fill='#f7da99' d="M170.849,141.602l-66.595-66.595c-8.076-8.077-21.172-8.077-29.248,0c-8.077,8.076-8.077,21.171,0,29.248l66.595,66.595
			c4.038,4.038,9.332,6.058,14.625,6.058c5.293,0,10.587-2.019,14.624-6.058C178.926,162.774,178.926,149.679,170.849,141.602z"/>
	</g>
</g>
<g>
	<g>
		<path fill='#f7da99' d="M436.994,407.745l-66.595-66.595c-8.077-8.077-21.172-8.077-29.249,0c-8.076,8.077-8.076,21.172,0,29.249l66.595,66.595
			c4.038,4.039,9.332,6.058,14.625,6.058c5.293,0,10.587-2.019,14.625-6.058C445.07,428.917,445.07,415.822,436.994,407.745z"/>
	</g>
</g>
<g>
	<g>
		<path fill='#f7da99' d="M114.809,235.318H20.682C9.26,235.318,0,244.578,0,256c0,11.423,9.26,20.682,20.682,20.682h94.127
			c11.422,0,20.682-9.259,20.682-20.682C135.492,244.578,126.231,235.318,114.809,235.318z"/>
	</g>
</g>
<g>
	<g>
		<path fill='#f7da99' d="M491.318,235.318h-94.127c-11.423,0-20.682,9.26-20.682,20.682c0,11.423,9.259,20.682,20.682,20.682h94.127
			c11.423,0,20.682-9.259,20.682-20.682C512,244.578,502.741,235.318,491.318,235.318z"/>
	</g>
</g>
<g>
	<g>
		<path fill='#f7da99' d="M170.849,341.15c-8.076-8.077-21.172-8.077-29.248,0l-66.595,66.595c-8.077,8.077-8.077,21.172,0,29.249
			c4.038,4.039,9.332,6.058,14.625,6.058c5.293,0,10.586-2.019,14.624-6.058l66.595-66.595
			C178.926,362.322,178.926,349.227,170.849,341.15z"/>
	</g>
</g>
<g>
	<g>
		<path fill='#f7da99' d="M436.994,75.007c-8.077-8.077-21.172-8.077-29.249,0l-66.595,66.595c-8.076,8.076-8.076,21.171,0,29.248
			c4.038,4.038,9.332,6.058,14.625,6.058c5.293,0,10.586-2.019,14.625-6.058l66.595-66.595
			C445.07,96.179,445.07,83.084,436.994,75.007z"/>
	</g>
</g>
<g>
</g>
<g>
</g>
<g>
</g>
<g>
</g>
<g>
</g>
<g>
</g>
<g>
</g>
<g>
</g>
<g>
</g>
<g>
</g>
<g>
</g>
<g>
</g>
<g>
</g>
<g>
</g>
<g>
</g>
</svg>
