<svg xmlns="http://www.w3.org/2000/svg" viewBox="-155 665 50 50">
  <defs>
    <style>
      .cls-1 {
        fill: #0B101A;
      }
    </style>
  </defs>
  <path id="settings" class="cls-1" d="M47.426,19.444H42.748a1.8,1.8,0,0,1-1.27-3.066l3.307-3.306a2.576,2.576,0,0,0,0-3.642L40.569,5.215a2.636,2.636,0,0,0-3.642,0L33.621,8.521a1.738,1.738,0,0,1-1.252.531,1.869,1.869,0,0,1-1.263-.5,1.734,1.734,0,0,1-.551-1.3V2.574A2.577,2.577,0,0,0,27.981,0H22.019a2.577,2.577,0,0,0-2.574,2.574V7.252a1.791,1.791,0,0,1-1.816,1.8,1.741,1.741,0,0,1-1.251-.531L13.071,5.215a2.636,2.636,0,0,0-3.642,0L5.214,9.431a2.576,2.576,0,0,0,0,3.642l3.307,3.306a1.8,1.8,0,0,1-1.269,3.066H2.574A2.577,2.577,0,0,0,0,22.019V27.98a2.578,2.578,0,0,0,2.574,2.576H7.252a1.8,1.8,0,0,1,1.27,3.066L5.215,36.928a2.576,2.576,0,0,0,0,3.642l4.216,4.216a2.634,2.634,0,0,0,3.642,0l3.306-3.306a1.738,1.738,0,0,1,1.252-.531,1.791,1.791,0,0,1,1.815,1.8v4.677A2.576,2.576,0,0,0,22.019,50h5.962a2.578,2.578,0,0,0,2.574-2.575V42.748a1.791,1.791,0,0,1,1.815-1.8,1.743,1.743,0,0,1,1.252.531l3.306,3.306a2.636,2.636,0,0,0,3.642,0l4.216-4.216a2.576,2.576,0,0,0,0-3.642l-3.307-3.306a1.8,1.8,0,0,1,1.27-3.066h4.678A2.578,2.578,0,0,0,50,27.981V22.019A2.577,2.577,0,0,0,47.426,19.444ZM31.481,25A6.481,6.481,0,1,1,25,18.519,6.49,6.49,0,0,1,31.481,25Z" transform="translate(-155 665)"/>
</svg>
